<svg width="240" height="156" viewBox="0 0 240 156" fill="none" xmlns="http://www.w3.org/2000/svg">
<g clip-path="url(#clip0_0_3)">
<path d="M232.168 4.67664H12.1149C8.0069 4.67664 4.6767 8.0068 4.6767 12.1148V148.562C4.6767 152.67 8.0069 156 12.1149 156H232.168C236.276 156 239.606 152.67 239.606 148.562V12.1148C239.606 8.0068 236.276 4.67664 232.168 4.67664Z" fill="#3F3F45"/>
<g filter="url(#filter0_dddd_0_3)">
<path d="M227.491 0H7.4382C3.3302 0 0 3.33018 0 7.4382V143.885C0 147.993 3.3302 151.323 7.4382 151.323H227.491C231.599 151.323 234.929 147.993 234.929 143.885V7.4382C234.929 3.33018 231.599 0 227.491 0Z" fill="white"/>
<path d="M7.4382 0.42494H227.491C231.364 0.42494 234.504 3.56486 234.504 7.4382V143.885C234.504 147.758 231.364 150.898 227.491 150.898H7.4382C3.5649 150.898 0.4249 147.758 0.4249 143.885V7.4382C0.4249 3.56486 3.5649 0.42494 7.4382 0.42494Z" stroke="#717179" stroke-width="0.849874"/>
</g>
<path d="M227.491 0H7.4404C3.3318 0 0.00220013 3.32955 0.00220013 7.4382V15.0921H234.931V7.4382C234.931 3.32955 231.602 0 227.493 0H227.491Z" fill="#717179"/>
<path d="M109.334 9.2925C110.298 8.3283 110.298 6.76499 109.334 5.80079C108.37 4.83658 106.806 4.83658 105.842 5.80079C104.878 6.76499 104.878 8.3283 105.842 9.2925C106.806 10.2567 108.37 10.2567 109.334 9.2925Z" fill="white"/>
<path d="M119.859 8.1143C120.174 6.78748 119.353 5.45685 118.027 5.14223C116.7 4.82761 115.369 5.64814 115.054 6.97494C114.74 8.3017 115.56 9.6324 116.887 9.947C118.214 10.2616 119.545 9.4411 119.859 8.1143Z" fill="white"/>
<path d="M129.737 8.1123C130.052 6.78552 129.231 5.45489 127.905 5.14027C126.578 4.82565 125.247 5.64618 124.933 6.97297C124.618 8.2998 125.439 9.6304 126.765 9.945C128.092 10.2597 129.423 9.4391 129.737 8.1123Z" fill="white"/>
<path d="M30.9464 10.015H11.192C9.8281 10.015 8.723 8.91 8.723 7.546C8.723 6.18208 9.8281 5.07703 11.192 5.07703H30.9464C32.3104 5.07703 33.4154 6.18208 33.4154 7.546C33.4154 8.91 32.3104 10.015 30.9464 10.015Z" fill="white"/>
<path d="M220.204 10.015H150.818C149.454 10.015 148.349 8.91 148.349 7.546C148.349 6.18208 149.454 5.07703 150.818 5.07703H220.204C221.568 5.07703 222.673 6.18208 222.673 7.546C222.673 8.91 221.568 10.015 220.204 10.015Z" fill="white"/>
<path d="M41.8852 9.2915C42.8495 8.3273 42.8495 6.76401 41.8852 5.79981C40.921 4.8356 39.3578 4.83561 38.3936 5.79981C37.4293 6.76401 37.4294 8.3273 38.3936 9.2915C39.3578 10.2557 40.921 10.2557 41.8852 9.2915Z" fill="white"/>
<path d="M132.966 15.159H234.025V33.8398H139.263C135.788 33.8398 132.966 31.0099 132.966 27.5242V15.1566V15.159Z" fill="#D4D4D8"/>
<path d="M77.3901 139.423H157.542C163.64 139.423 168.592 144.376 168.592 150.474H66.3395C66.3395 144.376 71.2919 139.423 77.3901 139.423Z" fill="#D4D4D8"/>
<path d="M181.57 29.4626H223.584C226.484 29.4626 228.836 27.1112 228.836 24.2106C228.836 21.31 226.484 18.9586 223.584 18.9586H181.57C178.669 18.9586 176.318 21.31 176.318 24.2106C176.318 27.1112 178.669 29.4626 181.57 29.4626Z" fill="#D4D4D8"/>
<path d="M148.803 25.0555C149.271 22.1929 147.329 19.493 144.467 19.0253C141.604 18.5575 138.904 20.499 138.436 23.3616C137.969 26.2243 139.91 28.9241 142.773 29.3919C145.635 29.8596 148.335 27.9182 148.803 25.0555Z" fill="#3F3F45"/>
<path d="M225.307 42.1289H128.374V47.2035H225.307V42.1289Z" fill="#D4D4D8"/>
<path d="M225.307 54.4211H128.374V59.4958H225.307V54.4211Z" fill="#D4D4D8"/>
<path d="M225.307 66.7109H128.374V71.7856H225.307V66.7109Z" fill="#D4D4D8"/>
<path d="M225.307 79.0009H128.374V84.0755H225.307V79.0009Z" fill="#D4D4D8"/>
<path d="M225.307 91.2931H128.374V96.3677H225.307V91.2931Z" fill="#D4D4D8"/>
<path d="M225.307 103.583H128.374V108.658H225.307V103.583Z" fill="#D4D4D8"/>
<path d="M225.307 115.875H128.374V120.95H225.307V115.875Z" fill="#D4D4D8"/>
<path d="M225.307 128.165H128.374V133.24H225.307V128.165Z" fill="#D4D4D8"/>
<path d="M11.0746 106.217H120.291V26.6628H11.0746V106.217Z" fill="#D4D4D8"/>
<path d="M11.0746 133.24H120.291V114.334H11.0746V133.24Z" fill="#D4D4D8"/>
<mask id="mask0_0_3" style="mask-type:luminance" maskUnits="userSpaceOnUse" x="11" y="26" width="110" height="81">
<path d="M11.0746 106.217H120.291V26.6628H11.0746V106.217Z" fill="white"/>
</mask>
<g mask="url(#mask0_0_3)">
<path d="M125.061 91.9451H29.5393V112.414H125.061V91.9451Z" fill="#E4E4E7"/>
<path d="M25.1168 63.8153C31.429 63.8153 36.5461 58.6982 36.5461 52.386C36.5461 46.0737 31.429 40.9567 25.1168 40.9567C18.8045 40.9567 13.6874 46.0737 13.6874 52.386C13.6874 58.6982 18.8045 63.8153 25.1168 63.8153Z" fill="#E4E4E7"/>
<path d="M106.824 40.6259H80.0533V67.3965H106.824V40.6259Z" fill="#E4E4E7"/>
<path d="M11.1689 84.747C11.1689 85.0085 10.9578 85.2196 10.6963 85.2196C10.4349 85.2196 10.2238 85.0085 10.2238 84.747C10.2238 84.4855 10.4349 84.2744 10.6963 84.2744C10.9578 84.2744 11.1689 84.4855 11.1689 84.747Z" fill="#717179"/>
<path d="M13.2375 86.0726C13.2375 86.3292 13.0288 86.5379 12.7722 86.5379C12.5155 86.5379 12.3068 86.3292 12.3068 86.0726C12.3068 85.8159 12.5155 85.6072 12.7722 85.6072C13.0288 85.6072 13.2375 85.8159 13.2375 86.0726Z" fill="#717179"/>
<path d="M11.3127 87.4653C11.3127 87.7267 11.1016 87.9378 10.8401 87.9378C10.5787 87.9378 10.3676 87.7267 10.3676 87.4653C10.3676 87.2038 10.5787 86.9927 10.8401 86.9927C11.1016 86.9927 11.3127 87.2038 11.3127 87.4653Z" fill="#717179"/>
<path d="M11.4709 90.0062C11.4709 90.2676 11.2598 90.4811 10.9983 90.4811C10.7369 90.4811 10.5258 90.27 10.5258 90.0062C10.5258 89.7423 10.7369 89.5336 10.9983 89.5336C11.2598 89.5336 11.4709 89.7447 11.4709 90.0062Z" fill="#717179"/>
<path d="M11.3942 92.6622C11.3942 92.9236 11.1831 93.1347 10.9216 93.1347C10.6601 93.1347 10.449 92.9236 10.449 92.6622C10.449 92.4007 10.6601 92.1896 10.9216 92.1896C11.1831 92.1896 11.3942 92.4007 11.3942 92.6622Z" fill="#717179"/>
<path d="M13.1537 94.0501C13.1537 94.3115 12.9426 94.5226 12.6811 94.5226C12.4196 94.5226 12.2085 94.3115 12.2085 94.0501C12.2085 93.7886 12.4196 93.5751 12.6811 93.5751C12.9426 93.5751 13.1537 93.7862 13.1537 94.0501Z" fill="#717179"/>
<path d="M12.7893 96.6797C12.7893 96.9412 12.5782 97.152 12.3168 97.152C12.0553 97.152 11.8442 96.9412 11.8442 96.6797C11.8442 96.4183 12.0553 96.2072 12.3168 96.2072C12.5782 96.2072 12.7893 96.4183 12.7893 96.6797Z" fill="#717179"/>
<path d="M13.7025 98.727C13.7025 98.983 13.4962 99.19 13.2419 99.19C12.9876 99.19 12.7813 98.983 12.7813 98.727C12.7813 98.47 12.9876 98.266 13.2419 98.266C13.4962 98.266 13.7025 98.472 13.7025 98.727Z" fill="#717179"/>
<path d="M15.2486 95.0185C15.2486 95.28 15.0375 95.4911 14.7761 95.4911C14.5146 95.4911 14.3035 95.28 14.3035 95.0185C14.3035 94.757 14.5146 94.5459 14.7761 94.5459C15.0375 94.5459 15.2486 94.757 15.2486 95.0185Z" fill="#717179"/>
<path d="M17.4996 93.6043C17.4996 93.8658 17.2885 94.0793 17.027 94.0793C16.7656 94.0793 16.5544 93.8682 16.5544 93.6043C16.5544 93.3404 16.7656 93.1317 17.027 93.1317C17.2885 93.1317 17.4996 93.3428 17.4996 93.6043Z" fill="#717179"/>
<path d="M17.7153 95.9893C17.7153 96.2508 17.5042 96.4643 17.2403 96.4643C16.9765 96.4643 16.7678 96.2532 16.7678 95.9893C16.7678 95.7254 16.9789 95.5167 17.2403 95.5167C17.5018 95.5167 17.7153 95.7278 17.7153 95.9893Z" fill="#717179"/>
<path d="M15.5364 97.32C15.5364 97.581 15.3253 97.792 15.0638 97.792C14.8024 97.792 14.5913 97.581 14.5913 97.32C14.5913 97.058 14.8024 96.847 15.0638 96.847C15.3253 96.847 15.5364 97.058 15.5364 97.32Z" fill="#717179"/>
<path d="M16.0854 99.863C16.0854 100.124 15.8743 100.336 15.6128 100.336C15.3513 100.336 15.1402 100.124 15.1402 99.863C15.1402 99.601 15.3513 99.39 15.6128 99.39C15.8743 99.39 16.0854 99.601 16.0854 99.863Z" fill="#717179"/>
<path d="M17.9814 98.35C17.9814 98.612 17.7703 98.823 17.5088 98.823C17.2473 98.823 17.0362 98.612 17.0362 98.35C17.0362 98.089 17.2473 97.878 17.5088 97.878C17.7703 97.878 17.9814 98.089 17.9814 98.35Z" fill="#717179"/>
<path d="M18.54 100.901C18.54 101.162 18.3289 101.373 18.0674 101.373C17.8059 101.373 17.5972 101.162 17.5972 100.901C17.5972 100.639 17.8083 100.431 18.0674 100.431C18.3265 100.431 18.54 100.642 18.54 100.901Z" fill="#717179"/>
<path d="M20.2563 99.29C20.2563 99.552 20.0452 99.765 19.7837 99.765C19.5222 99.765 19.3111 99.554 19.3111 99.29C19.3111 99.026 19.5222 98.818 19.7837 98.818C20.0452 98.818 20.2563 99.029 20.2563 99.29Z" fill="#717179"/>
<path d="M21.5026 101.112C21.5026 101.373 21.2915 101.587 21.03 101.587C20.7685 101.587 20.5574 101.376 20.5574 101.112C20.5574 100.848 20.7685 100.639 21.03 100.639C21.2915 100.639 21.5026 100.85 21.5026 101.112Z" fill="#717179"/>
<path d="M24.0532 101.023C24.0532 101.285 23.8421 101.496 23.5806 101.496C23.3191 101.496 23.108 101.285 23.108 101.023C23.108 100.762 23.3191 100.551 23.5806 100.551C23.8421 100.551 24.0532 100.762 24.0532 101.023Z" fill="#717179"/>
<path d="M26.7068 100.283C26.7068 100.544 26.4957 100.757 26.2342 100.757C25.9728 100.757 25.7617 100.546 25.7617 100.283C25.7617 100.019 25.9728 99.81 26.2342 99.81C26.4957 99.81 26.7068 100.021 26.7068 100.283Z" fill="#717179"/>
<path d="M29.0273 99.067C29.0273 99.329 28.8162 99.54 28.5547 99.54C28.2932 99.54 28.0821 99.329 28.0821 99.067C28.0821 98.806 28.2932 98.594 28.5547 98.594C28.8162 98.594 29.0273 98.806 29.0273 99.067Z" fill="#717179"/>
<path d="M31.2659 97.809C31.2659 98.07 31.0548 98.279 30.7957 98.279C30.5366 98.279 30.3255 98.068 30.3255 97.809C30.3255 97.55 30.5366 97.339 30.7957 97.339C31.0548 97.339 31.2659 97.55 31.2659 97.809Z" fill="#717179"/>
<path d="M32.6899 95.9103C32.6899 96.1718 32.4788 96.3853 32.2173 96.3853C31.9559 96.3853 31.7448 96.1742 31.7448 95.9103C31.7448 95.6464 31.9559 95.4377 32.2173 95.4377C32.4788 95.4377 32.6899 95.6488 32.6899 95.9103Z" fill="#717179"/>
<path d="M34.5521 95.0883C34.7893 95.0883 34.9815 94.896 34.9815 94.6589C34.9815 94.4217 34.7893 94.2295 34.5521 94.2295C34.315 94.2295 34.1227 94.4217 34.1227 94.6589C34.1227 94.896 34.315 95.0883 34.5521 95.0883Z" fill="#717179"/>
<path d="M32.8721 93.0072C32.8721 93.2687 32.661 93.4798 32.3995 93.4798C32.138 93.4798 31.9269 93.2687 31.9269 93.0072C31.9269 92.7458 32.138 92.5347 32.3995 92.5347C32.661 92.5347 32.8721 92.7458 32.8721 93.0072Z" fill="#717179"/>
<path d="M30.6714 93.9853C30.6714 94.2468 30.4603 94.4579 30.1988 94.4579C29.9374 94.4579 29.7263 94.2468 29.7263 93.9853C29.7263 93.7238 29.9374 93.5127 30.1988 93.5127C30.4603 93.5127 30.6714 93.7238 30.6714 93.9853Z" fill="#717179"/>
<path d="M29.2621 95.9941C29.2621 96.2555 29.051 96.4666 28.7895 96.4666C28.5281 96.4666 28.317 96.2555 28.317 95.9941C28.317 95.7326 28.5281 95.5215 28.7895 95.5215C29.051 95.5215 29.2621 95.7326 29.2621 95.9941Z" fill="#717179"/>
<path d="M27.0759 97.346C27.0759 97.608 26.8648 97.819 26.6033 97.819C26.3418 97.819 26.1307 97.608 26.1307 97.346C26.1307 97.085 26.3418 96.8735 26.6033 96.8735C26.8648 96.8735 27.0759 97.085 27.0759 97.346Z" fill="#717179"/>
<path d="M24.9234 98.569C24.9234 98.83 24.7123 99.041 24.4508 99.041C24.1893 99.041 23.9782 98.83 23.9782 98.569C23.9782 98.307 24.1893 98.096 24.4508 98.096C24.7123 98.096 24.9234 98.307 24.9234 98.569Z" fill="#717179"/>
<path d="M22.5814 98.403C22.5814 98.665 22.3703 98.878 22.1088 98.878C21.8473 98.878 21.6362 98.667 21.6362 98.403C21.6362 98.139 21.8473 97.931 22.1088 97.931C22.3703 97.931 22.5814 98.142 22.5814 98.403Z" fill="#717179"/>
<path d="M20.2393 96.9745C20.2393 97.236 20.0282 97.447 19.7667 97.447C19.5052 97.447 19.2941 97.236 19.2941 96.9745C19.2941 96.7131 19.5052 96.502 19.7667 96.502C20.0282 96.502 20.2393 96.7131 20.2393 96.9745Z" fill="#717179"/>
<path d="M22.4016 95.6416C22.4016 95.9031 22.1905 96.1142 21.929 96.1142C21.6675 96.1142 21.4564 95.9031 21.4564 95.6416C21.4564 95.3802 21.6675 95.1691 21.929 95.1691C22.1905 95.1691 22.4016 95.3802 22.4016 95.6416Z" fill="#717179"/>
<path d="M24.6933 96.0325C24.6933 96.294 24.4822 96.5051 24.2208 96.5051C23.9593 96.5051 23.7482 96.294 23.7482 96.0325C23.7482 95.771 23.9593 95.5599 24.2208 95.5599C24.4822 95.5599 24.6933 95.771 24.6933 96.0325Z" fill="#717179"/>
<path d="M26.7787 94.5678C26.7787 94.8293 26.5676 95.0404 26.3061 95.0404C26.0447 95.0404 25.8336 94.8293 25.8336 94.5678C25.8336 94.3063 26.0447 94.0952 26.3061 94.0952C26.5676 94.0952 26.7787 94.3063 26.7787 94.5678Z" fill="#717179"/>
<path d="M28.4996 92.758C28.4996 93.0195 28.2885 93.2306 28.027 93.2306C27.7656 93.2306 27.5544 93.0195 27.5544 92.758C27.5544 92.4965 27.7656 92.2854 28.027 92.2854C28.2885 92.2854 28.4996 92.4965 28.4996 92.758Z" fill="#717179"/>
<path d="M30.5324 90.9889C30.5324 91.2504 30.3213 91.4615 30.0599 91.4615C29.7984 91.4615 29.5873 91.2504 29.5873 90.9889C29.5873 90.7275 29.7984 90.5164 30.0599 90.5164C30.3213 90.5164 30.5324 90.7275 30.5324 90.9889Z" fill="#717179"/>
<path d="M33.052 90.428C33.052 90.6895 32.8409 90.9006 32.5795 90.9006C32.318 90.9006 32.1069 90.6895 32.1069 90.428C32.1069 90.1665 32.318 89.9554 32.5795 89.9554C32.8409 89.9554 33.052 90.1665 33.052 90.428Z" fill="#717179"/>
<path d="M35.2788 91.8233C35.2788 92.0823 35.0701 92.291 34.8111 92.291C34.552 92.291 34.3433 92.0823 34.3433 91.8233C34.3433 91.5642 34.552 91.3555 34.8111 91.3555C35.0701 91.3555 35.2788 91.5642 35.2788 91.8233Z" fill="#717179"/>
<path d="M34.8084 88.7379C34.8084 88.8459 34.7197 88.9346 34.6093 88.9346C34.499 88.9346 34.4126 88.8459 34.4126 88.7379C34.4126 88.63 34.5014 88.5388 34.6093 88.5388C34.7173 88.5388 34.8084 88.6276 34.8084 88.7379Z" fill="#717179"/>
<path d="M32.0786 88.1221C32.0786 88.3835 31.8675 88.5947 31.606 88.5947C31.3445 88.5947 31.1334 88.3835 31.1334 88.1221C31.1334 87.8606 31.3445 87.6471 31.606 87.6471C31.8675 87.6471 32.0786 87.8582 32.0786 88.1221Z" fill="#717179"/>
<path d="M29.5594 88.3138C29.5594 88.5752 29.3483 88.7863 29.0868 88.7863C28.8253 88.7863 28.6142 88.5752 28.6142 88.3138C28.6142 88.0523 28.8253 87.8412 29.0868 87.8412C29.3483 87.8412 29.5594 88.0523 29.5594 88.3138Z" fill="#717179"/>
<path d="M27.7422 90.0158C27.7422 90.2773 27.5311 90.4884 27.2696 90.4884C27.0082 90.4884 26.7971 90.2773 26.7971 90.0158C26.7971 89.7543 27.0082 89.5432 27.2696 89.5432C27.5311 89.5432 27.7422 89.7543 27.7422 90.0158Z" fill="#717179"/>
<path d="M26.0163 91.7944C26.0163 92.0559 25.8052 92.267 25.5438 92.267C25.2823 92.267 25.0712 92.0559 25.0712 91.7944C25.0712 91.533 25.2823 91.3195 25.5438 91.3195C25.8052 91.3195 26.0163 91.5306 26.0163 91.7944Z" fill="#717179"/>
<path d="M24.209 93.2183C24.209 93.4798 23.9979 93.6933 23.7364 93.6933C23.4749 93.6933 23.2638 93.4822 23.2638 93.2183C23.2638 92.9544 23.4749 92.7457 23.7364 92.7457C23.9979 92.7457 24.209 92.9568 24.209 93.2183Z" fill="#717179"/>
<path d="M21.9318 93.1512C21.9318 93.4126 21.7207 93.6238 21.4592 93.6238C21.1977 93.6238 20.9866 93.4126 20.9866 93.1512C20.9866 92.8897 21.1977 92.6786 21.4592 92.6786C21.7207 92.6786 21.9318 92.8897 21.9318 93.1512Z" fill="#717179"/>
<path d="M19.9062 94.6709C19.9062 94.9324 19.6951 95.1435 19.4336 95.1435C19.1722 95.1435 18.9611 94.9324 18.9611 94.6709C18.9611 94.4095 19.1722 94.1984 19.4336 94.1984C19.6951 94.1984 19.9062 94.4095 19.9062 94.6709Z" fill="#717179"/>
<path d="M19.6209 92.3145C19.6209 92.576 19.4098 92.7871 19.1484 92.7871C18.8869 92.7871 18.6758 92.576 18.6758 92.3145C18.6758 92.053 18.8869 91.8419 19.1484 91.8419C19.4098 91.8419 19.6209 92.053 19.6209 92.3145Z" fill="#717179"/>
<path d="M17.6554 90.9841C17.6554 91.2456 17.4443 91.4567 17.1829 91.4567C16.9214 91.4567 16.7103 91.2456 16.7103 90.9841C16.7103 90.7227 16.9214 90.5092 17.1829 90.5092C17.4443 90.5092 17.6554 90.7203 17.6554 90.9841Z" fill="#717179"/>
<path d="M15.4429 92.4032C15.4429 92.6647 15.2318 92.8758 14.9703 92.8758C14.7088 92.8758 14.4977 92.6647 14.4977 92.4032C14.4977 92.1418 14.7088 91.9307 14.9703 91.9307C15.2318 91.9307 15.4429 92.1418 15.4429 92.4032Z" fill="#717179"/>
<path d="M13.5611 91.2454C13.5611 91.5069 13.35 91.718 13.0886 91.718C12.8271 91.718 12.616 91.5069 12.616 91.2454C12.616 90.9839 12.8271 90.7728 13.0886 90.7728C13.35 90.7728 13.5611 90.9839 13.5611 91.2454Z" fill="#717179"/>
<path d="M13.5707 88.6494C13.5707 88.9109 13.3596 89.122 13.0981 89.122C12.8367 89.122 12.6256 88.9109 12.6256 88.6494C12.6256 88.3879 12.8367 88.1744 13.0981 88.1744C13.3596 88.1744 13.5707 88.3855 13.5707 88.6494Z" fill="#717179"/>
<path d="M15.9079 89.6082C15.9079 89.8697 15.6968 90.0832 15.4354 90.0832C15.1739 90.0832 14.9628 89.8721 14.9628 89.6082C14.9628 89.3443 15.1739 89.1356 15.4354 89.1356C15.6968 89.1356 15.9079 89.3467 15.9079 89.6082Z" fill="#717179"/>
<path d="M15.3635 87.223C15.3635 87.3573 15.2531 87.4676 15.1188 87.4676C14.9844 87.4676 14.8741 87.3573 14.8741 87.223C14.8741 87.0886 14.9844 86.9783 15.1188 86.9783C15.2531 86.9783 15.3635 87.0886 15.3635 87.223Z" fill="#717179"/>
<path d="M109.367 36.4341C109.663 36.4341 109.9 36.1966 109.9 35.9015C109.9 35.6065 109.66 35.3666 109.367 35.3666C109.075 35.3666 108.833 35.6065 108.833 35.9015C108.833 36.1966 109.072 36.4341 109.367 36.4341Z" fill="#717179"/>
<path d="M109.367 40.7001C109.072 40.7001 108.833 40.94 108.833 41.2326C108.833 41.5253 109.072 41.7676 109.367 41.7676C109.663 41.7676 109.9 41.5277 109.9 41.2326C109.9 40.9376 109.66 40.7001 109.367 40.7001Z" fill="#717179"/>
<path d="M109.367 46.0361C109.072 46.0361 108.833 46.276 108.833 46.5687C108.833 46.8614 109.072 47.1036 109.367 47.1036C109.663 47.1036 109.9 46.8637 109.9 46.5687C109.9 46.2736 109.66 46.0361 109.367 46.0361Z" fill="#717179"/>
<path d="M109.367 51.3698C109.072 51.3698 108.833 51.6096 108.833 51.9023C108.833 52.195 109.072 52.4373 109.367 52.4373C109.663 52.4373 109.9 52.1974 109.9 51.9023C109.9 51.6072 109.66 51.3698 109.367 51.3698Z" fill="#717179"/>
<path d="M109.367 56.703C109.072 56.703 108.833 56.9429 108.833 57.238C108.833 57.533 109.072 57.7729 109.367 57.7729C109.663 57.7729 109.9 57.533 109.9 57.238C109.9 56.9429 109.66 56.703 109.367 56.703Z" fill="#717179"/>
<path d="M104.034 35.3666C103.739 35.3666 103.499 35.6065 103.499 35.9015C103.499 36.1966 103.739 36.4341 104.034 36.4341C104.329 36.4341 104.569 36.1966 104.569 35.9015C104.569 35.6065 104.329 35.3666 104.034 35.3666Z" fill="#717179"/>
<path d="M104.034 40.7001C103.739 40.7001 103.499 40.94 103.499 41.2326C103.499 41.5253 103.739 41.7676 104.034 41.7676C104.329 41.7676 104.569 41.5277 104.569 41.2326C104.569 40.9376 104.329 40.7001 104.034 40.7001Z" fill="#717179"/>
<path d="M104.034 46.0361C103.739 46.0361 103.499 46.276 103.499 46.5687C103.499 46.8614 103.739 47.1036 104.034 47.1036C104.329 47.1036 104.569 46.8637 104.569 46.5687C104.569 46.2736 104.329 46.0361 104.034 46.0361Z" fill="#717179"/>
<path d="M104.034 51.3698C103.739 51.3698 103.499 51.6096 103.499 51.9023C103.499 52.195 103.739 52.4373 104.034 52.4373C104.329 52.4373 104.569 52.1974 104.569 51.9023C104.569 51.6072 104.329 51.3698 104.034 51.3698Z" fill="#717179"/>
<path d="M104.034 56.703C103.739 56.703 103.499 56.9429 103.499 57.238C103.499 57.533 103.739 57.7729 104.034 57.7729C104.329 57.7729 104.569 57.533 104.569 57.238C104.569 56.9429 104.329 56.703 104.034 56.703Z" fill="#717179"/>
<path d="M98.6998 35.3666C98.4048 35.3666 98.1678 35.6065 98.1678 35.9015C98.1678 36.1966 98.4078 36.4341 98.6998 36.4341C98.9928 36.4341 99.2348 36.1966 99.2348 35.9015C99.2348 35.6065 98.9958 35.3666 98.6998 35.3666Z" fill="#717179"/>
<path d="M98.6998 40.7001C98.4048 40.7001 98.1678 40.94 98.1678 41.2326C98.1678 41.5253 98.4078 41.7676 98.6998 41.7676C98.9928 41.7676 99.2348 41.5277 99.2348 41.2326C99.2348 40.9376 98.9958 40.7001 98.6998 40.7001Z" fill="#717179"/>
<path d="M98.6998 46.0361C98.4048 46.0361 98.1678 46.276 98.1678 46.5687C98.1678 46.8614 98.4078 47.1036 98.6998 47.1036C98.9928 47.1036 99.2348 46.8637 99.2348 46.5687C99.2348 46.2736 98.9958 46.0361 98.6998 46.0361Z" fill="#717179"/>
<path d="M98.6998 51.3698C98.4048 51.3698 98.1678 51.6096 98.1678 51.9023C98.1678 52.195 98.4078 52.4373 98.6998 52.4373C98.9928 52.4373 99.2348 52.1974 99.2348 51.9023C99.2348 51.6072 98.9958 51.3698 98.6998 51.3698Z" fill="#717179"/>
<path d="M98.6998 56.703C98.4048 56.703 98.1678 56.9429 98.1678 57.238C98.1678 57.533 98.4078 57.7729 98.6998 57.7729C98.9928 57.7729 99.2348 57.533 99.2348 57.238C99.2348 56.9429 98.9958 56.703 98.6998 56.703Z" fill="#717179"/>
<path d="M93.3638 35.3666C93.0688 35.3666 92.8318 35.6065 92.8318 35.9015C92.8318 36.1966 93.0718 36.4341 93.3638 36.4341C93.6568 36.4341 93.8968 36.1966 93.8968 35.9015C93.8968 35.6065 93.6588 35.3666 93.3638 35.3666Z" fill="#717179"/>
<path d="M93.3638 40.7001C93.0688 40.7001 92.8318 40.94 92.8318 41.2326C92.8318 41.5253 93.0718 41.7676 93.3638 41.7676C93.6568 41.7676 93.8968 41.5277 93.8968 41.2326C93.8968 40.9376 93.6588 40.7001 93.3638 40.7001Z" fill="#717179"/>
<path d="M93.3638 46.0361C93.0688 46.0361 92.8318 46.276 92.8318 46.5687C92.8318 46.8614 93.0718 47.1036 93.3638 47.1036C93.6568 47.1036 93.8968 46.8637 93.8968 46.5687C93.8968 46.2736 93.6588 46.0361 93.3638 46.0361Z" fill="#717179"/>
<path d="M93.3638 51.3698C93.0688 51.3698 92.8318 51.6096 92.8318 51.9023C92.8318 52.195 93.0718 52.4373 93.3638 52.4373C93.6568 52.4373 93.8968 52.1974 93.8968 51.9023C93.8968 51.6072 93.6588 51.3698 93.3638 51.3698Z" fill="#717179"/>
<path d="M93.3638 56.703C93.0688 56.703 92.8318 56.9429 92.8318 57.238C92.8318 57.533 93.0718 57.7729 93.3638 57.7729C93.6568 57.7729 93.8968 57.533 93.8968 57.238C93.8968 56.9429 93.6588 56.703 93.3638 56.703Z" fill="#717179"/>
<path d="M88.0308 35.3666C87.7358 35.3666 87.4958 35.6065 87.4958 35.9015C87.4958 36.1966 87.7358 36.4341 88.0308 36.4341C88.3258 36.4341 88.5638 36.1966 88.5638 35.9015C88.5638 35.6065 88.3258 35.3666 88.0308 35.3666Z" fill="#717179"/>
<path d="M88.0308 40.7001C87.7358 40.7001 87.4958 40.94 87.4958 41.2326C87.4958 41.5253 87.7358 41.7676 88.0308 41.7676C88.3258 41.7676 88.5638 41.5277 88.5638 41.2326C88.5638 40.9376 88.3258 40.7001 88.0308 40.7001Z" fill="#717179"/>
<path d="M88.0308 46.0361C87.7358 46.0361 87.4958 46.276 87.4958 46.5687C87.4958 46.8614 87.7358 47.1036 88.0308 47.1036C88.3258 47.1036 88.5638 46.8637 88.5638 46.5687C88.5638 46.2736 88.3258 46.0361 88.0308 46.0361Z" fill="#717179"/>
<path d="M88.0308 51.3698C87.7358 51.3698 87.4958 51.6096 87.4958 51.9023C87.4958 52.195 87.7358 52.4373 88.0308 52.4373C88.3258 52.4373 88.5638 52.1974 88.5638 51.9023C88.5638 51.6072 88.3258 51.3698 88.0308 51.3698Z" fill="#717179"/>
<path d="M88.0308 56.703C87.7358 56.703 87.4958 56.9429 87.4958 57.238C87.4958 57.533 87.7358 57.7729 88.0308 57.7729C88.3258 57.7729 88.5638 57.533 88.5638 57.238C88.5638 56.9429 88.3258 56.703 88.0308 56.703Z" fill="#717179"/>
<path d="M112.237 39.1117C112.532 39.1117 112.77 38.8742 112.77 38.5791C112.77 38.2841 112.53 38.0442 112.237 38.0442C111.944 38.0442 111.702 38.2841 111.702 38.5791C111.702 38.8742 111.942 39.1117 112.237 39.1117Z" fill="#717179"/>
<path d="M112.237 43.3777C111.942 43.3777 111.702 43.6176 111.702 43.9102C111.702 44.2029 111.942 44.4452 112.237 44.4452C112.532 44.4452 112.77 44.2053 112.77 43.9102C112.77 43.6152 112.53 43.3777 112.237 43.3777Z" fill="#717179"/>
<path d="M112.237 48.7136C111.942 48.7136 111.702 48.9535 111.702 49.2462C111.702 49.5388 111.942 49.7811 112.237 49.7811C112.532 49.7811 112.77 49.5412 112.77 49.2462C112.77 48.9511 112.53 48.7136 112.237 48.7136Z" fill="#717179"/>
<path d="M112.237 54.0471C111.942 54.0471 111.702 54.287 111.702 54.5797C111.702 54.8723 111.942 55.1146 112.237 55.1146C112.532 55.1146 112.77 54.8747 112.77 54.5797C112.77 54.2846 112.53 54.0471 112.237 54.0471Z" fill="#717179"/>
<path d="M112.237 59.3806C111.942 59.3806 111.702 59.6205 111.702 59.9156C111.702 60.2106 111.942 60.4505 112.237 60.4505C112.532 60.4505 112.77 60.2106 112.77 59.9156C112.77 59.6205 112.53 59.3806 112.237 59.3806Z" fill="#717179"/>
<path d="M106.903 38.0442C106.608 38.0442 106.368 38.2841 106.368 38.5791C106.368 38.8742 106.608 39.1117 106.903 39.1117C107.198 39.1117 107.438 38.8742 107.438 38.5791C107.438 38.2841 107.198 38.0442 106.903 38.0442Z" fill="#717179"/>
<path d="M106.903 43.3777C106.608 43.3777 106.368 43.6176 106.368 43.9102C106.368 44.2029 106.608 44.4452 106.903 44.4452C107.198 44.4452 107.438 44.2053 107.438 43.9102C107.438 43.6152 107.198 43.3777 106.903 43.3777Z" fill="#717179"/>
<path d="M106.903 48.7136C106.608 48.7136 106.368 48.9535 106.368 49.2462C106.368 49.5388 106.608 49.7811 106.903 49.7811C107.198 49.7811 107.438 49.5412 107.438 49.2462C107.438 48.9511 107.198 48.7136 106.903 48.7136Z" fill="#717179"/>
<path d="M106.903 54.0471C106.608 54.0471 106.368 54.287 106.368 54.5797C106.368 54.8723 106.608 55.1146 106.903 55.1146C107.198 55.1146 107.438 54.8747 107.438 54.5797C107.438 54.2846 107.198 54.0471 106.903 54.0471Z" fill="#717179"/>
<path d="M106.903 59.3806C106.608 59.3806 106.368 59.6205 106.368 59.9156C106.368 60.2106 106.608 60.4505 106.903 60.4505C107.198 60.4505 107.438 60.2106 107.438 59.9156C107.438 59.6205 107.198 59.3806 106.903 59.3806Z" fill="#717179"/>
<path d="M101.57 38.0442C101.275 38.0442 101.038 38.2841 101.038 38.5791C101.038 38.8742 101.277 39.1117 101.57 39.1117C101.863 39.1117 102.105 38.8742 102.105 38.5791C102.105 38.2841 101.865 38.0442 101.57 38.0442Z" fill="#717179"/>
<path d="M101.57 43.3777C101.275 43.3777 101.038 43.6176 101.038 43.9102C101.038 44.2029 101.277 44.4452 101.57 44.4452C101.863 44.4452 102.105 44.2053 102.105 43.9102C102.105 43.6152 101.865 43.3777 101.57 43.3777Z" fill="#717179"/>
<path d="M101.57 48.7136C101.275 48.7136 101.038 48.9535 101.038 49.2462C101.038 49.5388 101.277 49.7811 101.57 49.7811C101.863 49.7811 102.105 49.5412 102.105 49.2462C102.105 48.9511 101.865 48.7136 101.57 48.7136Z" fill="#717179"/>
<path d="M101.57 54.0471C101.275 54.0471 101.038 54.287 101.038 54.5797C101.038 54.8723 101.277 55.1146 101.57 55.1146C101.863 55.1146 102.105 54.8747 102.105 54.5797C102.105 54.2846 101.865 54.0471 101.57 54.0471Z" fill="#717179"/>
<path d="M101.57 59.3806C101.275 59.3806 101.038 59.6205 101.038 59.9156C101.038 60.2106 101.277 60.4505 101.57 60.4505C101.863 60.4505 102.105 60.2106 102.105 59.9156C102.105 59.6205 101.865 59.3806 101.57 59.3806Z" fill="#717179"/>
<path d="M96.2338 38.0442C95.9388 38.0442 95.7018 38.2841 95.7018 38.5791C95.7018 38.8742 95.9408 39.1117 96.2338 39.1117C96.5268 39.1117 96.7688 38.8742 96.7688 38.5791C96.7688 38.2841 96.5318 38.0442 96.2338 38.0442Z" fill="#717179"/>
<path d="M96.2338 43.3777C95.9388 43.3777 95.7018 43.6176 95.7018 43.9102C95.7018 44.2029 95.9408 44.4452 96.2338 44.4452C96.5268 44.4452 96.7688 44.2053 96.7688 43.9102C96.7688 43.6152 96.5318 43.3777 96.2338 43.3777Z" fill="#717179"/>
<path d="M96.2338 48.7136C95.9388 48.7136 95.7018 48.9535 95.7018 49.2462C95.7018 49.5388 95.9408 49.7811 96.2338 49.7811C96.5268 49.7811 96.7688 49.5412 96.7688 49.2462C96.7688 48.9511 96.5318 48.7136 96.2338 48.7136Z" fill="#717179"/>
<path d="M96.2338 54.0471C95.9388 54.0471 95.7018 54.287 95.7018 54.5797C95.7018 54.8723 95.9408 55.1146 96.2338 55.1146C96.5268 55.1146 96.7688 54.8747 96.7688 54.5797C96.7688 54.2846 96.5318 54.0471 96.2338 54.0471Z" fill="#717179"/>
<path d="M96.2338 59.3806C95.9388 59.3806 95.7018 59.6205 95.7018 59.9156C95.7018 60.2106 95.9408 60.4505 96.2338 60.4505C96.5268 60.4505 96.7688 60.2106 96.7688 59.9156C96.7688 59.6205 96.5318 59.3806 96.2338 59.3806Z" fill="#717179"/>
<path d="M90.8998 38.0442C90.6048 38.0442 90.3648 38.2841 90.3648 38.5791C90.3648 38.8742 90.6048 39.1117 90.8998 39.1117C91.1948 39.1117 91.4328 38.8742 91.4328 38.5791C91.4328 38.2841 91.1948 38.0442 90.8998 38.0442Z" fill="#717179"/>
<path d="M90.9008 43.3777C90.6058 43.3777 90.3658 43.6176 90.3658 43.9102C90.3658 44.2029 90.6058 44.4452 90.9008 44.4452C91.1958 44.4452 91.4328 44.2053 91.4328 43.9102C91.4328 43.6152 91.1958 43.3777 90.9008 43.3777Z" fill="#717179"/>
<path d="M90.9008 48.7136C90.6058 48.7136 90.3658 48.9535 90.3658 49.2462C90.3658 49.5388 90.6058 49.7811 90.9008 49.7811C91.1958 49.7811 91.4328 49.5412 91.4328 49.2462C91.4328 48.9511 91.1958 48.7136 90.9008 48.7136Z" fill="#717179"/>
<path d="M90.9008 54.0471C90.6058 54.0471 90.3658 54.287 90.3658 54.5797C90.3658 54.8723 90.6058 55.1146 90.9008 55.1146C91.1958 55.1146 91.4328 54.8747 91.4328 54.5797C91.4328 54.2846 91.1958 54.0471 90.9008 54.0471Z" fill="#717179"/>
<path d="M90.9008 59.3806C90.6058 59.3806 90.3658 59.6205 90.3658 59.9156C90.3658 60.2106 90.6058 60.4505 90.9008 60.4505C91.1958 60.4505 91.4328 60.2106 91.4328 59.9156C91.4328 59.6205 91.1958 59.3806 90.9008 59.3806Z" fill="#717179"/>
<path d="M25.6492 43.0134C25.9491 43.0134 26.1938 43.2581 26.1938 43.558C26.1938 43.8578 25.9491 44.1025 25.6492 44.1025C25.3494 44.1025 25.1047 43.8578 25.1047 43.558C25.1047 43.2581 25.3494 43.0134 25.6492 43.0134Z" fill="#717179"/>
<path d="M22.6721 46.3069C22.9719 46.3069 23.2166 46.5492 23.2166 46.8514C23.2166 47.1537 22.9719 47.396 22.6721 47.396C22.3722 47.396 22.1275 47.1513 22.1275 46.8514C22.1275 46.5516 22.3698 46.3069 22.6721 46.3069Z" fill="#717179"/>
<path d="M19.7284 49.694C20.0282 49.694 20.2729 49.9387 20.2729 50.2385C20.2729 50.5384 20.0282 50.7831 19.7284 50.7831C19.4285 50.7831 19.1838 50.5384 19.1838 50.2385C19.1838 49.9387 19.4285 49.694 19.7284 49.694Z" fill="#717179"/>
<path d="M21.0588 41.8293C21.3587 41.8293 21.6034 42.0716 21.6034 42.3739C21.6034 42.6762 21.3611 42.9184 21.0588 42.9184C20.7566 42.9184 20.5143 42.6762 20.5143 42.3739C20.5143 42.0716 20.7566 41.8293 21.0588 41.8293Z" fill="#717179"/>
<path d="M19.4193 37.6317C19.7191 37.6317 19.9638 37.8764 19.9638 38.1763C19.9638 38.4761 19.7191 38.7208 19.4193 38.7208C19.1194 38.7208 18.8747 38.4785 18.8747 38.1763C18.8747 37.874 19.1194 37.6317 19.4193 37.6317Z" fill="#717179"/>
<path d="M24.1824 38.442C24.4823 38.442 24.727 38.6867 24.727 38.9866C24.727 39.2864 24.4823 39.5311 24.1824 39.5311C23.8826 39.5311 23.6379 39.2864 23.6379 38.9866C23.6379 38.6867 23.8802 38.442 24.1824 38.442Z" fill="#717179"/>
<path d="M28.5569 39.8468C28.8592 39.8468 29.1015 40.0915 29.1015 40.3914C29.1015 40.6912 28.8568 40.9359 28.5569 40.9359C28.2571 40.9359 28.0124 40.6912 28.0124 40.3914C28.0124 40.0915 28.2571 39.8468 28.5569 39.8468Z" fill="#717179"/>
<path d="M33.6101 40.8248C33.91 40.8248 34.1523 41.0671 34.1523 41.367C34.1523 41.6668 33.91 41.9115 33.6101 41.9115C33.3102 41.9115 33.0656 41.6668 33.0656 41.367C33.0656 41.0671 33.3102 40.8248 33.6101 40.8248Z" fill="#717179"/>
<path d="M30.5131 44.0706C30.8129 44.0706 31.0576 44.3152 31.0576 44.6151C31.0576 44.915 30.8129 45.1597 30.5131 45.1597C30.2132 45.1597 29.9685 44.915 29.9685 44.6151C29.9685 44.3152 30.2132 44.0706 30.5131 44.0706Z" fill="#717179"/>
<path d="M27.3729 47.316C27.6728 47.316 27.9175 47.5607 27.9175 47.8606C27.9175 48.1604 27.6752 48.4051 27.3729 48.4051C27.0707 48.4051 26.8284 48.1604 26.8284 47.8606C26.8284 47.5607 27.0731 47.316 27.3729 47.316Z" fill="#717179"/>
<path d="M24.3716 50.6647C24.6738 50.6647 24.9161 50.9094 24.9161 51.2092C24.9161 51.5091 24.6714 51.7538 24.3716 51.7538C24.0717 51.7538 23.827 51.5091 23.827 51.2092C23.827 50.9094 24.0717 50.6647 24.3716 50.6647Z" fill="#717179"/>
<path d="M29.0964 51.6069C29.3962 51.6069 29.6409 51.8516 29.6409 52.1515C29.6409 52.4513 29.3986 52.696 29.0964 52.696C28.7941 52.696 28.5518 52.4513 28.5518 52.1515C28.5518 51.8516 28.7965 51.6069 29.0964 51.6069Z" fill="#717179"/>
<path d="M31.9777 48.5721C32.28 48.5721 32.5223 48.8168 32.5223 49.1167C32.5223 49.4165 32.28 49.6612 31.9777 49.6612C31.6755 49.6612 31.4332 49.4165 31.4332 49.1167C31.4332 48.8168 31.6779 48.5721 31.9777 48.5721Z" fill="#717179"/>
<path d="M35.2399 45.0533C35.5398 45.0533 35.7845 45.298 35.7845 45.5979C35.7845 45.8978 35.5398 46.1424 35.2399 46.1424C34.9401 46.1424 34.6954 45.8978 34.6954 45.5979C34.6954 45.298 34.9401 45.0533 35.2399 45.0533Z" fill="#717179"/>
<path d="M33.8903 53.6924C34.1902 53.6924 34.4349 53.9371 34.4349 54.2369C34.4349 54.5368 34.1902 54.7815 33.8903 54.7815C33.5905 54.7815 33.3458 54.5368 33.3458 54.2369C33.3458 53.9371 33.5905 53.6924 33.8903 53.6924Z" fill="#717179"/>
<path d="M36.0192 49.7323C36.3143 49.7323 36.5566 49.9722 36.5566 50.2697C36.5566 50.5671 36.3167 50.8046 36.0192 50.8046C35.7218 50.8046 35.4819 50.5647 35.4819 50.2697C35.4819 49.9746 35.7218 49.7323 36.0192 49.7323Z" fill="#717179"/>
<path d="M31.273 36.9678C31.5609 36.9678 31.7936 37.2005 31.7936 37.4883C31.7936 37.7762 31.5609 38.0089 31.273 38.0089C30.9851 38.0089 30.7524 37.7762 30.7524 37.4883C30.7524 37.2005 30.9851 36.9678 31.273 36.9678Z" fill="#717179"/>
<path d="M27.1547 34.7745C27.433 34.7745 27.6585 35 27.6585 35.2783C27.6585 35.5566 27.433 35.7821 27.1547 35.7821C26.8764 35.7821 26.6509 35.5566 26.6509 35.2783C26.6509 35 26.8764 34.7745 27.1547 34.7745Z" fill="#717179"/>
<path d="M22.5882 34.161C22.8857 34.161 23.1256 34.4009 23.1256 34.7008C23.1256 35.0006 22.8833 35.2381 22.5882 35.2381C22.2931 35.2381 22.0508 34.9958 22.0508 34.7008C22.0508 34.4057 22.2907 34.161 22.5882 34.161Z" fill="#717179"/>
<path d="M17.7244 33.9283C17.9499 33.9283 18.1322 34.1107 18.1322 34.3362C18.1322 34.5617 17.9499 34.744 17.7244 34.744C17.4989 34.744 17.3166 34.5617 17.3166 34.3362C17.3166 34.1107 17.4989 33.9283 17.7244 33.9283Z" fill="#717179"/>
<path d="M14.1121 36.6707C14.4024 36.6707 14.6351 36.9057 14.6351 37.1936C14.6351 37.4815 14.4024 37.7166 14.1121 37.7166C13.8219 37.7166 13.5892 37.4815 13.5892 37.1936C13.5892 36.9057 13.8243 36.6707 14.1121 36.6707Z" fill="#717179"/>
<path d="M16.1568 40.573C16.4567 40.573 16.7013 40.8177 16.7013 41.1175C16.7013 41.4174 16.4567 41.6621 16.1568 41.6621C15.8569 41.6621 15.6122 41.4174 15.6122 41.1175C15.6122 40.8177 15.8545 40.573 16.1568 40.573Z" fill="#717179"/>
<path d="M10.8591 39.921C11.1494 39.921 11.3845 40.1561 11.3845 40.4464C11.3845 40.7366 11.1494 40.9717 10.8591 40.9717C10.5689 40.9717 10.3362 40.7366 10.3362 40.4464C10.3362 40.1561 10.5713 39.921 10.8591 39.921Z" fill="#717179"/>
<path d="M11.4298 47.4719C11.7297 47.4719 11.9743 47.7166 11.9743 48.0165C11.9743 48.3163 11.7297 48.561 11.4298 48.561C11.1299 48.561 10.8853 48.3187 10.8853 48.0165C10.8853 47.7142 11.1299 47.4719 11.4298 47.4719Z" fill="#717179"/>
<path d="M13.4457 43.8307C13.7455 43.8307 13.9902 44.0754 13.9902 44.3752C13.9902 44.6751 13.7455 44.9198 13.4457 44.9198C13.1458 44.9198 12.9011 44.6751 12.9011 44.3752C12.9011 44.0754 13.1458 43.8307 13.4457 43.8307Z" fill="#717179"/>
<path d="M18.0912 45.0197C18.3911 45.0197 18.6358 45.2643 18.6358 45.5642C18.6358 45.8641 18.3911 46.1088 18.0912 46.1088C17.7914 46.1088 17.5467 45.8641 17.5467 45.5642C17.5467 45.2643 17.7914 45.0197 18.0912 45.0197Z" fill="#717179"/>
<path d="M15.5073 48.4907C15.8072 48.4907 16.0519 48.7354 16.0519 49.0353C16.0519 49.3351 15.8072 49.5798 15.5073 49.5798C15.2075 49.5798 14.9628 49.3351 14.9628 49.0353C14.9628 48.7354 15.2075 48.4907 15.5073 48.4907Z" fill="#717179"/>
<path d="M12.228 51.8611C12.5302 51.8611 12.7725 52.1058 12.7725 52.4056C12.7725 52.7055 12.5278 52.9502 12.228 52.9502C11.9281 52.9502 11.6834 52.7055 11.6834 52.4056C11.6834 52.1058 11.9281 51.8611 12.228 51.8611Z" fill="#717179"/>
<path d="M12.8657 56.5737C13.1655 56.5737 13.4102 56.8184 13.4102 57.1183C13.4102 57.4181 13.1655 57.6628 12.8657 57.6628C12.5658 57.6628 12.3211 57.4181 12.3211 57.1183C12.3211 56.8184 12.5658 56.5737 12.8657 56.5737Z" fill="#717179"/>
<path d="M15.0421 60.0662C15.3252 60.0662 15.5531 60.2941 15.5531 60.5771C15.5531 60.8602 15.3252 61.0881 15.0421 61.0881C14.759 61.0881 14.5311 60.8602 14.5311 60.5771C14.5311 60.2941 14.7614 60.0662 15.0421 60.0662Z" fill="#717179"/>
<path d="M18.0864 57.0411C18.3887 57.0411 18.631 57.2858 18.631 57.5857C18.631 57.8855 18.3863 58.1302 18.0864 58.1302C17.7866 58.1302 17.5419 57.8879 17.5419 57.5857C17.5419 57.2834 17.7842 57.0411 18.0864 57.0411Z" fill="#717179"/>
<path d="M19.5295 61.2646C19.8293 61.2646 20.074 61.5093 20.074 61.8092C20.074 62.1091 19.8293 62.3537 19.5295 62.3537C19.2296 62.3537 18.9849 62.1091 18.9849 61.8092C18.9849 61.5093 19.2296 61.2646 19.5295 61.2646Z" fill="#717179"/>
<path d="M22.8496 58.2778C23.1495 58.2778 23.3942 58.5225 23.3942 58.8224C23.3942 59.1222 23.1495 59.3669 22.8496 59.3669C22.5497 59.3669 22.3051 59.1222 22.3051 58.8224C22.3051 58.5225 22.5497 58.2778 22.8496 58.2778Z" fill="#717179"/>
<path d="M24.2733 62.4872C24.5443 62.4872 24.765 62.7079 24.765 62.979C24.765 63.25 24.5443 63.4707 24.2733 63.4707C24.0022 63.4707 23.7815 63.25 23.7815 62.979C23.7815 62.7079 24.0022 62.4872 24.2733 62.4872Z" fill="#717179"/>
<path d="M27.627 59.479C27.9293 59.479 28.1716 59.7237 28.1716 60.0235C28.1716 60.3234 27.9269 60.5681 27.627 60.5681C27.3271 60.5681 27.0825 60.3234 27.0825 60.0235C27.0825 59.7237 27.3271 59.479 27.627 59.479Z" fill="#717179"/>
<path d="M32.3681 58.9011C32.6344 58.9011 32.8503 59.117 32.8503 59.3833C32.8503 59.6496 32.6344 59.8655 32.3681 59.8655C32.1018 59.8655 31.8859 59.6496 31.8859 59.3833C31.8859 59.117 32.1018 58.9011 32.3681 58.9011Z" fill="#717179"/>
<path d="M30.012 55.6411C30.3118 55.6411 30.5565 55.8858 30.5565 56.1857C30.5565 56.4855 30.3118 56.7302 30.012 56.7302C29.7121 56.7302 29.4674 56.4855 29.4674 56.1857C29.4674 55.8858 29.7121 55.6411 30.012 55.6411Z" fill="#717179"/>
<path d="M25.7405 55.0059C26.0403 55.0059 26.285 55.2481 26.285 55.5504C26.285 55.8527 26.0403 56.095 25.7405 56.095C25.4406 56.095 25.1959 55.8503 25.1959 55.5504C25.1959 55.2505 25.4406 55.0059 25.7405 55.0059Z" fill="#717179"/>
<path d="M21.1882 53.9559C21.4881 53.9559 21.7328 54.2006 21.7328 54.5005C21.7328 54.8003 21.4881 55.045 21.1882 55.045C20.8884 55.045 20.6437 54.8003 20.6437 54.5005C20.6437 54.2006 20.8884 53.9559 21.1882 53.9559Z" fill="#717179"/>
<path d="M16.4421 53.0955C16.7419 53.0955 16.9866 53.3401 16.9866 53.64C16.9866 53.9399 16.7419 54.1846 16.4421 54.1846C16.1422 54.1846 15.8975 53.9399 15.8975 53.64C15.8975 53.3401 16.1398 53.0955 16.4421 53.0955Z" fill="#717179"/>
<path d="M115.269 81.4487C115.269 81.0888 115.559 80.7986 115.919 80.7986C116.278 80.7986 116.569 81.0888 116.569 81.4487C116.569 81.8085 116.278 82.0988 115.919 82.0988C115.559 82.0988 115.269 81.8085 115.269 81.4487Z" fill="#717179"/>
<path d="M112.62 81.4487C112.62 81.0888 112.91 80.7986 113.27 80.7986C113.63 80.7986 113.92 81.0888 113.92 81.4487C113.92 81.8085 113.63 82.0988 113.27 82.0988C112.91 82.0988 112.62 81.8085 112.62 81.4487Z" fill="#717179"/>
<path d="M109.971 81.4487C109.971 81.0888 110.261 80.7986 110.621 80.7986C110.981 80.7986 111.271 81.0888 111.271 81.4487C111.271 81.8085 110.978 82.0988 110.621 82.0988C110.264 82.0988 109.971 81.8085 109.971 81.4487Z" fill="#717179"/>
<path d="M107.322 81.4487C107.322 81.0888 107.612 80.7986 107.972 80.7986C108.332 80.7986 108.622 81.0888 108.622 81.4487C108.622 81.8085 108.332 82.0988 107.972 82.0988C107.612 82.0988 107.322 81.8085 107.322 81.4487Z" fill="#717179"/>
<path d="M104.674 81.4487C104.674 81.0888 104.964 80.7986 105.324 80.7986C105.683 80.7986 105.974 81.0888 105.974 81.4487C105.974 81.8085 105.683 82.0988 105.324 82.0988C104.964 82.0988 104.674 81.8085 104.674 81.4487Z" fill="#717179"/>
<path d="M102.025 81.4487C102.025 81.0888 102.315 80.7986 102.675 80.7986C103.035 80.7986 103.325 81.0888 103.325 81.4487C103.325 81.8085 103.035 82.0988 102.675 82.0988C102.315 82.0988 102.025 81.8085 102.025 81.4487Z" fill="#717179"/>
<path d="M99.3788 81.4487C99.3788 81.0888 99.6688 80.7986 100.029 80.7986C100.388 80.7986 100.679 81.0888 100.679 81.4487C100.679 81.8085 100.388 82.0988 100.029 82.0988C99.6688 82.0988 99.3788 81.8085 99.3788 81.4487Z" fill="#717179"/>
<path d="M96.7298 81.4487C96.7298 81.0888 97.0198 80.7986 97.3798 80.7986C97.7398 80.7986 98.0298 81.0888 98.0298 81.4487C98.0298 81.8085 97.7398 82.0988 97.3798 82.0988C97.0198 82.0988 96.7298 81.8085 96.7298 81.4487Z" fill="#717179"/>
<path d="M94.0808 81.4487C94.0808 81.0888 94.3708 80.7986 94.7308 80.7986C95.0908 80.7986 95.3808 81.0888 95.3808 81.4487C95.3808 81.8085 95.0908 82.0988 94.7308 82.0988C94.3708 82.0988 94.0808 81.8085 94.0808 81.4487Z" fill="#717179"/>
<path d="M91.4318 81.4487C91.4318 81.0888 91.7218 80.7986 92.0818 80.7986C92.4418 80.7986 92.7318 81.0888 92.7318 81.4487C92.7318 81.8085 92.4418 82.0988 92.0818 82.0988C91.7218 82.0988 91.4318 81.8085 91.4318 81.4487Z" fill="#717179"/>
<path d="M88.7828 81.4487C88.7828 81.0888 89.0738 80.7986 89.4338 80.7986C89.7928 80.7986 90.0838 81.0888 90.0838 81.4487C90.0838 81.8085 89.7928 82.0988 89.4338 82.0988C89.0738 82.0988 88.7828 81.8085 88.7828 81.4487Z" fill="#717179"/>
<path d="M118.809 87.2185C118.809 86.8586 119.1 86.5684 119.46 86.5684C119.819 86.5684 120.11 86.8586 120.11 87.2185C120.11 87.5783 119.819 87.8686 119.46 87.8686C119.1 87.8686 118.809 87.5783 118.809 87.2185Z" fill="#717179"/>
<path d="M116.161 87.2185C116.161 86.8586 116.451 86.5684 116.811 86.5684C117.17 86.5684 117.461 86.8586 117.461 87.2185C117.461 87.5783 117.168 87.8686 116.811 87.8686C116.453 87.8686 116.161 87.5783 116.161 87.2185Z" fill="#717179"/>
<path d="M113.512 87.2185C113.512 86.8586 113.802 86.5684 114.162 86.5684C114.522 86.5684 114.812 86.8586 114.812 87.2185C114.812 87.5783 114.522 87.8686 114.162 87.8686C113.802 87.8686 113.512 87.5783 113.512 87.2185Z" fill="#717179"/>
<path d="M110.863 87.2185C110.863 86.8586 111.153 86.5684 111.513 86.5684C111.873 86.5684 112.163 86.8586 112.163 87.2185C112.163 87.5783 111.873 87.8686 111.513 87.8686C111.153 87.8686 110.863 87.5783 110.863 87.2185Z" fill="#717179"/>
<path d="M108.214 87.2185C108.214 86.8586 108.504 86.5684 108.864 86.5684C109.224 86.5684 109.514 86.8586 109.514 87.2185C109.514 87.5783 109.224 87.8686 108.864 87.8686C108.504 87.8686 108.214 87.5783 108.214 87.2185Z" fill="#717179"/>
<path d="M105.566 87.2185C105.566 86.8586 105.856 86.5684 106.216 86.5684C106.575 86.5684 106.866 86.8586 106.866 87.2185C106.866 87.5783 106.575 87.8686 106.216 87.8686C105.856 87.8686 105.566 87.5783 105.566 87.2185Z" fill="#717179"/>
<path d="M102.917 87.2185C102.917 86.8586 103.207 86.5684 103.567 86.5684C103.927 86.5684 104.217 86.8586 104.217 87.2185C104.217 87.5783 103.927 87.8686 103.567 87.8686C103.207 87.8686 102.917 87.5783 102.917 87.2185Z" fill="#717179"/>
<path d="M100.268 87.2185C100.268 86.8586 100.558 86.5684 100.918 86.5684C101.278 86.5684 101.568 86.8586 101.568 87.2185C101.568 87.5783 101.278 87.8686 100.918 87.8686C100.558 87.8686 100.268 87.5783 100.268 87.2185Z" fill="#717179"/>
<path d="M97.6208 87.2185C97.6208 86.8586 97.9118 86.5684 98.2718 86.5684C98.6308 86.5684 98.9218 86.8586 98.9218 87.2185C98.9218 87.5783 98.6308 87.8686 98.2718 87.8686C97.9118 87.8686 97.6208 87.5783 97.6208 87.2185Z" fill="#717179"/>
<path d="M94.9728 87.2185C94.9728 86.8586 95.2628 86.5684 95.6228 86.5684C95.9828 86.5684 96.2728 86.8586 96.2728 87.2185C96.2728 87.5783 95.9828 87.8686 95.6228 87.8686C95.2628 87.8686 94.9728 87.5783 94.9728 87.2185Z" fill="#717179"/>
<path d="M51.3698 72.2914C51.3937 73.2766 50.6171 74.094 49.6319 74.118C48.6467 74.142 47.8293 73.3653 47.8053 72.3801C47.7813 71.3949 48.558 70.5775 49.5432 70.5535C50.526 70.5295 51.3458 71.3062 51.3698 72.2914Z" fill="white"/>
<path d="M23.3574 54.7446C23.2184 55.8473 22.214 56.6287 21.1113 56.4897C20.0087 56.3507 19.2272 55.3463 19.3662 54.2436C19.5053 53.141 20.5097 52.3595 21.6123 52.4986C22.715 52.6376 23.4964 53.642 23.3574 54.7446Z" fill="#D4D4D8"/>
</g>
<path fill-rule="evenodd" clip-rule="evenodd" d="M34.6573 63.8702C33.5565 66.2432 32.7704 68.7496 32.3173 71.3201C37.9433 67.3137 46.0221 63.8266 57.341 63.1173C69.4281 62.3596 77.0625 58.1367 81.7236 54.0751C80.4096 52.9097 79.0048 51.8721 77.5293 50.9671C71.8885 55.0913 63.6978 58.7271 52.1127 59.4533C44.7561 59.9144 39.0487 61.6592 34.6573 63.8702ZM71.117 48.0098C63.292 45.4644 54.4578 46.1335 46.7824 50.5919C44.5284 51.9012 42.5085 53.4594 40.7378 55.2113C44.0091 54.3415 47.6636 53.7263 51.7377 53.471C60.2197 52.9393 66.5091 50.7012 71.117 48.0098ZM85.7861 58.485C80.172 63.4209 71.2656 68.2504 57.716 69.0996C45.0487 69.8935 37.2716 74.4937 32.6825 78.7255C32.4456 78.9438 32.2169 79.1616 31.9961 79.3782C32.1778 81.2794 32.5436 83.177 33.1001 85.0449C33.4567 84.687 33.8305 84.3265 34.2223 83.9652C39.7898 78.8313 48.8578 73.6464 62.9443 72.7636C75.6118 71.9696 83.3888 67.3695 87.9778 63.1376C88.1348 62.9927 88.2888 62.8479 88.4388 62.7036C88.2208 62.2839 87.9918 61.8671 87.7518 61.4538C87.1478 60.4139 86.4907 59.4238 85.7861 58.485ZM90.7698 68.6642C85.1277 73.41 76.3809 77.9272 63.3193 78.7459C50.652 79.5398 42.8749 84.14 38.2858 88.3718C37.2671 89.311 36.3988 90.2387 35.6647 91.1121C35.7485 91.2622 35.8338 91.4119 35.9205 91.5612C44.2345 105.874 62.5771 110.737 76.8898 102.423C88.8848 95.4554 94.2428 81.4441 90.7698 68.6642Z" fill="#FAFAFA"/>
</g>
<defs>
<filter id="filter0_dddd_0_3" x="-12.7481" y="-2.54963" width="260.425" height="198.066" filterUnits="userSpaceOnUse" color-interpolation-filters="sRGB">
<feFlood flood-opacity="0" result="BackgroundImageFix"/>
<feColorMatrix in="SourceAlpha" type="matrix" values="0 0 0 0 0 0 0 0 0 0 0 0 0 0 0 0 0 0 127 0" result="hardAlpha"/>
<feOffset dy="1.69975"/>
<feGaussianBlur stdDeviation="2.12469"/>
<feColorMatrix type="matrix" values="0 0 0 0 0 0 0 0 0 0 0 0 0 0 0 0 0 0 0.06 0"/>
<feBlend mode="normal" in2="BackgroundImageFix" result="effect1_dropShadow_0_3"/>
<feColorMatrix in="SourceAlpha" type="matrix" values="0 0 0 0 0 0 0 0 0 0 0 0 0 0 0 0 0 0 127 0" result="hardAlpha"/>
<feOffset dy="7.64887"/>
<feGaussianBlur stdDeviation="3.82443"/>
<feColorMatrix type="matrix" values="0 0 0 0 0 0 0 0 0 0 0 0 0 0 0 0 0 0 0.05 0"/>
<feBlend mode="normal" in2="effect1_dropShadow_0_3" result="effect2_dropShadow_0_3"/>
<feColorMatrix in="SourceAlpha" type="matrix" values="0 0 0 0 0 0 0 0 0 0 0 0 0 0 0 0 0 0 127 0" result="hardAlpha"/>
<feOffset dy="17.8474"/>
<feGaussianBlur stdDeviation="5.09924"/>
<feColorMatrix type="matrix" values="0 0 0 0 0 0 0 0 0 0 0 0 0 0 0 0 0 0 0.03 0"/>
<feBlend mode="normal" in2="effect2_dropShadow_0_3" result="effect3_dropShadow_0_3"/>
<feColorMatrix in="SourceAlpha" type="matrix" values="0 0 0 0 0 0 0 0 0 0 0 0 0 0 0 0 0 0 127 0" result="hardAlpha"/>
<feOffset dy="31.4453"/>
<feGaussianBlur stdDeviation="6.37405"/>
<feColorMatrix type="matrix" values="0 0 0 0 0 0 0 0 0 0 0 0 0 0 0 0 0 0 0.01 0"/>
<feBlend mode="normal" in2="effect3_dropShadow_0_3" result="effect4_dropShadow_0_3"/>
<feBlend mode="normal" in="SourceGraphic" in2="effect4_dropShadow_0_3" result="shape"/>
</filter>
<clipPath id="clip0_0_3">
<rect width="239.606" height="156" fill="white"/>
</clipPath>
</defs>
</svg>
